<?xml version="1.0" standalone="no"?>
<!DOCTYPE svg PUBLIC "-//W3C//DTD SVG 20010904//EN"
 "http://www.w3.org/TR/2001/REC-SVG-20010904/DTD/svg10.dtd">
<svg version="1.0" xmlns="http://www.w3.org/2000/svg"
 width="1024.000000pt" height="1024.000000pt" viewBox="0 0 1024.000000 1024.000000"
 preserveAspectRatio="xMidYMid meet">
<metadata>
Created by potrace 1.14, written by Peter Selinger 2001-2017
</metadata>
<g transform="translate(0.000000,1024.000000) scale(0.100000,-0.100000)"
fill="#000000" stroke="none">
<path d="M5628 6435 c-2 -2 -50 -6 -108 -9 -58 -3 -118 -8 -135 -11 -16 -2
-50 -7 -75 -10 -105 -14 -131 -18 -240 -41 -123 -26 -212 -51 -325 -89 -170
-57 -239 -90 -492 -231 -240 -134 -460 -248 -551 -283 -28 -11 -70 -23 -94
-26 -24 -3 -59 -7 -78 -10 -19 -2 -141 -7 -270 -10 -255 -6 -431 -13 -470 -19
-27 -4 -115 -17 -127 -18 -38 -4 -157 -45 -211 -74 -54 -28 -109 -43 -277 -78
-334 -69 -465 -124 -585 -245 -76 -76 -120 -154 -151 -266 -18 -66 -22 -107
-23 -235 -1 -85 2 -183 6 -218 l7 -62 -62 -31 c-82 -40 -84 -43 -80 -85 3 -41
15 -53 53 -55 14 0 34 -2 45 -5 38 -7 289 -20 561 -29 l162 -5 4 117 c4 93 10
135 31 195 108 315 402 517 732 503 289 -12 541 -191 650 -462 37 -91 54 -191
49 -293 l-3 -68 552 3 c527 4 1066 11 1487 20 919 21 1363 34 1435 44 6 0 11
31 12 69 9 291 231 574 515 656 90 27 98 28 208 30 255 6 483 -115 624 -334
60 -91 110 -229 115 -316 1 -19 194 34 253 70 54 32 71 58 124 183 14 34 36
70 48 82 20 19 21 26 19 253 l-2 233 -61 190 c-34 105 -62 195 -64 200 -4 18
-27 90 -38 117 -9 24 -18 28 -81 38 -63 10 -130 22 -205 36 l-23 5 28 50 c51
92 117 155 201 195 112 52 155 76 170 93 17 21 38 61 46 87 6 19 3 21 -26 19
-18 -2 -78 -6 -133 -10 -55 -4 -116 -8 -135 -10 -19 -2 -71 -6 -115 -10 -43
-3 -80 -7 -80 -8 -1 -1 -50 -83 -110 -182 -59 -99 -111 -184 -115 -188 -11
-13 -432 119 -575 180 -179 76 -444 163 -666 218 -102 25 -199 47 -215 50 -16
2 -81 13 -144 24 -63 10 -140 22 -170 26 -30 4 -62 9 -71 10 -9 2 -52 6 -95
10 -44 3 -95 8 -114 11 -40 5 -537 13 -542 9z m275 -518 c0 -147 -2 -270 -6
-273 -5 -6 -1750 -9 -1892 -5 -27 1 -25 4 30 32 33 17 114 61 180 99 393 221
601 298 980 365 137 24 189 30 360 40 61 4 111 8 112 9 1 1 55 2 119 1 l117
-1 0 -267z m357 248 c19 -2 60 -7 90 -10 210 -23 479 -72 680 -126 63 -17 120
-32 125 -33 50 -11 306 -99 414 -143 218 -89 227 -92 421 -150 102 -30 188
-58 192 -61 5 -5 -2032 -8 -2134 -3 -17 1 -18 21 -18 272 l0 270 98 -6 c53 -3
113 -7 132 -10z"/>
<path d="M2703 4975 c-113 -25 -209 -80 -298 -170 -194 -195 -235 -465 -107
-708 190 -364 692 -436 985 -142 64 64 139 188 152 252 2 10 8 36 13 59 15 67
7 221 -17 294 -66 208 -236 364 -452 416 -55 14 -216 13 -276 -1z m258 -334
c97 -44 169 -152 169 -256 0 -213 -224 -354 -413 -261 -215 105 -217 401 -4
513 69 36 172 38 248 4z"/>
<path d="M7640 4973 c-269 -69 -453 -293 -465 -568 -15 -330 236 -607 571
-631 224 -17 435 88 559 276 145 221 128 512 -42 721 -141 172 -405 258 -623
202z m265 -332 c63 -28 110 -72 143 -136 37 -72 37 -179 -1 -251 -71 -139
-237 -197 -379 -132 -186 86 -227 323 -81 462 88 84 209 105 318 57z"/>
</g>
</svg>
